<mxfile host="Electron" modified="2023-08-02T10:25:20.608Z" agent="Mozilla/5.0 (Windows NT 10.0; Win64; x64) AppleWebKit/537.36 (KHTML, like Gecko) draw.io/21.6.5 Chrome/114.0.5735.243 Electron/25.3.1 Safari/537.36" etag="x1N6J3zZQ4aPWFAwGo0W" version="21.6.5" type="device">
  <diagram name="Страница 1" id="pf44Tpq2JGXnkv6qA8E6">
    <mxGraphModel dx="782" dy="498" grid="1" gridSize="10" guides="1" tooltips="1" connect="1" arrows="1" fold="1" page="1" pageScale="1" pageWidth="827" pageHeight="1169" math="0" shadow="0">
      <root>
        <mxCell id="0" />
        <mxCell id="1" parent="0" />
        <mxCell id="rlj0wsjtCJiIXWOo7ut7-42" value="" style="edgeStyle=orthogonalEdgeStyle;rounded=0;orthogonalLoop=1;jettySize=auto;html=1;" parent="1" source="rlj0wsjtCJiIXWOo7ut7-1" target="rlj0wsjtCJiIXWOo7ut7-5" edge="1">
          <mxGeometry relative="1" as="geometry" />
        </mxCell>
        <mxCell id="rlj0wsjtCJiIXWOo7ut7-1" value="int n = 0&lt;br&gt;string [ ] stringArray&lt;br&gt;int j = 0&lt;br&gt;string [ ] rez" style="shape=parallelogram;perimeter=parallelogramPerimeter;whiteSpace=wrap;html=1;fixedSize=1;size=30;" parent="1" vertex="1">
          <mxGeometry x="290" y="160" width="190" height="80" as="geometry" />
        </mxCell>
        <mxCell id="rlj0wsjtCJiIXWOo7ut7-37" value="" style="edgeStyle=orthogonalEdgeStyle;rounded=0;orthogonalLoop=1;jettySize=auto;html=1;" parent="1" source="rlj0wsjtCJiIXWOo7ut7-3" target="rlj0wsjtCJiIXWOo7ut7-1" edge="1">
          <mxGeometry relative="1" as="geometry" />
        </mxCell>
        <mxCell id="rlj0wsjtCJiIXWOo7ut7-3" value="selection" style="rounded=1;whiteSpace=wrap;html=1;" parent="1" vertex="1">
          <mxGeometry x="325" y="60" width="120" height="60" as="geometry" />
        </mxCell>
        <mxCell id="rlj0wsjtCJiIXWOo7ut7-8" style="edgeStyle=orthogonalEdgeStyle;rounded=0;orthogonalLoop=1;jettySize=auto;html=1;exitX=0.5;exitY=1;exitDx=0;exitDy=0;entryX=0.5;entryY=0;entryDx=0;entryDy=0;" parent="1" source="rlj0wsjtCJiIXWOo7ut7-5" target="rlj0wsjtCJiIXWOo7ut7-7" edge="1">
          <mxGeometry relative="1" as="geometry" />
        </mxCell>
        <mxCell id="rlj0wsjtCJiIXWOo7ut7-5" value="for (int i = 0; i&amp;lt;stringArray.Length;&lt;br&gt;i++)" style="shape=hexagon;perimeter=hexagonPerimeter2;whiteSpace=wrap;html=1;fixedSize=1;" parent="1" vertex="1">
          <mxGeometry x="325" y="270" width="120" height="80" as="geometry" />
        </mxCell>
        <mxCell id="rlj0wsjtCJiIXWOo7ut7-16" style="edgeStyle=orthogonalEdgeStyle;rounded=0;orthogonalLoop=1;jettySize=auto;html=1;entryX=0.5;entryY=1;entryDx=0;entryDy=0;" parent="1" source="rlj0wsjtCJiIXWOo7ut7-7" target="rlj0wsjtCJiIXWOo7ut7-15" edge="1">
          <mxGeometry relative="1" as="geometry" />
        </mxCell>
        <mxCell id="rlj0wsjtCJiIXWOo7ut7-19" value="Yes" style="edgeLabel;html=1;align=center;verticalAlign=middle;resizable=0;points=[];" parent="rlj0wsjtCJiIXWOo7ut7-16" vertex="1" connectable="0">
          <mxGeometry x="-0.5812" y="2" relative="1" as="geometry">
            <mxPoint y="-12" as="offset" />
          </mxGeometry>
        </mxCell>
        <mxCell id="rlj0wsjtCJiIXWOo7ut7-29" style="edgeStyle=orthogonalEdgeStyle;rounded=0;orthogonalLoop=1;jettySize=auto;html=1;entryX=1;entryY=0.5;entryDx=0;entryDy=0;" parent="1" source="rlj0wsjtCJiIXWOo7ut7-7" target="rlj0wsjtCJiIXWOo7ut7-5" edge="1">
          <mxGeometry relative="1" as="geometry">
            <mxPoint x="450" y="310" as="targetPoint" />
            <Array as="points">
              <mxPoint x="540" y="430" />
              <mxPoint x="540" y="310" />
            </Array>
          </mxGeometry>
        </mxCell>
        <mxCell id="rlj0wsjtCJiIXWOo7ut7-30" value="No" style="edgeLabel;html=1;align=center;verticalAlign=middle;resizable=0;points=[];" parent="rlj0wsjtCJiIXWOo7ut7-29" vertex="1" connectable="0">
          <mxGeometry x="-0.837" y="8" relative="1" as="geometry">
            <mxPoint as="offset" />
          </mxGeometry>
        </mxCell>
        <mxCell id="rlj0wsjtCJiIXWOo7ut7-7" value="if (stringArray[ i ].Length&amp;lt;=3)" style="rhombus;whiteSpace=wrap;html=1;" parent="1" vertex="1">
          <mxGeometry x="280" y="390" width="210" height="80" as="geometry" />
        </mxCell>
        <mxCell id="rlj0wsjtCJiIXWOo7ut7-17" style="edgeStyle=orthogonalEdgeStyle;rounded=0;orthogonalLoop=1;jettySize=auto;html=1;entryX=0;entryY=0.5;entryDx=0;entryDy=0;" parent="1" source="rlj0wsjtCJiIXWOo7ut7-15" target="rlj0wsjtCJiIXWOo7ut7-5" edge="1">
          <mxGeometry relative="1" as="geometry" />
        </mxCell>
        <mxCell id="rlj0wsjtCJiIXWOo7ut7-15" value="n++&lt;br&gt;rez [ j ] = stringArray [ i ]&lt;br&gt;j++" style="rounded=0;whiteSpace=wrap;html=1;" parent="1" vertex="1">
          <mxGeometry x="110" y="280" width="150" height="60" as="geometry" />
        </mxCell>
      </root>
    </mxGraphModel>
  </diagram>
</mxfile>
